<svg width="870" height="120" viewBox="0 0 870 120" fill="none" xmlns="http://www.w3.org/2000/svg">
<rect width="870" height="120" fill="#2D00F7"/>
<path d="M76 32C60.5365 32 48 44.5365 48 60C48 75.4635 60.5365 88 76 88C91.4635 88 104 75.4635 104 60C104 44.5365 91.4635 32 76 32Z" fill="#DBFF00"/>
<path d="M54.3368 56.5718C53.831 54.315 53.8422 53.3742 53.8627 51.4982C53.9542 50.5107 54.5814 49.4691 55.0872 49.1518C55.6603 48.8307 55.6528 49.4318 55.6398 50.2643C58.548 44.4683 63.6291 40.427 69.5782 39.1763C71.0696 38.8907 72.6152 38.8105 74.1702 38.943C79.0571 39.3555 84.0486 41.8065 87.1995 45.3401C87.9872 46.2249 88.8814 47.2273 88.3755 47.959C87.6774 48.967 86.2755 48.3939 85.6539 47.5707C81.9803 42.7043 75.8222 40.1171 69.9646 40.9777C68.1558 41.2446 65.3782 42.0398 62.4214 44.3246C60.523 45.7918 59.2798 47.8283 57.8312 49.6875C57.8163 49.7099 57.5904 50.0217 57.2115 50.703C57.2488 50.6713 57.2862 50.6395 57.3216 50.6097L57.5886 50.3969C57.6763 50.3297 57.9115 50.1523 58.199 50.1262C59.052 50.0478 59.2872 51.3097 58.6264 52.411C58.563 52.5155 58.3875 52.7843 58.1131 53.0065C56.224 54.5315 55.4326 55.3865 54.3368 56.5699V56.5718ZM75.6131 57.4697C73.0371 55.5302 73.6736 51.2835 77.4536 50.6787C79.6283 50.4398 81.6144 51.9649 81.8795 54.0817C82.2995 57.4267 78.3758 59.5491 75.6131 57.4715V57.4697ZM61.9192 60.7662C59.3806 59.3774 59.5616 54.6398 62.9048 53.475C64.6091 52.9859 66.2536 54.0499 66.7315 55.9521C67.5398 59.1777 64.527 62.1923 61.9192 60.7662ZM90.847 65.6849C90.6342 65.9873 88.9467 67.4843 88.5248 64.7123H88.523C87.1734 66.8011 79.9064 77.0659 68.9062 74.8259C60.8982 73.1945 54.5926 66.7843 56.9744 65.1753C57.1294 65.0987 57.6838 64.9158 58.2942 65.7353C62.6435 71.563 69.3075 72.7091 72.5611 72.4683C80.78 71.8598 85.6856 63.7715 85.891 63.4262C85.9134 63.387 85.9339 63.3534 85.9544 63.3217C86.0011 63.2414 86.0664 63.1331 86.128 63.0323H86.1243L85.512 63.2545C85.1032 63.3945 84.7112 63.3739 84.3491 63.1947C83.3747 62.715 83.0835 61.259 84.1064 60.3705C84.2296 60.2622 84.4368 60.083 90.0723 58.2238C90.8059 60.8894 90.9422 62.0411 91.2166 64.3353C91.224 64.5275 91.2502 65.1099 90.8451 65.6849H90.847Z" fill="#2D00F7"/>
<path fill-rule="evenodd" clip-rule="evenodd" d="M200.581 39.9004H149.581C146.361 39.903 143.188 40.6794 140.33 42.1643C137.479 43.6456 135.025 45.7888 133.173 48.414C129.945 50.1948 126.7 51.3904 123.841 51.3904L123.839 51.3904C122.004 51.433 120.216 50.801 118.816 49.6141L118.815 49.6134C118.344 49.2224 117.965 48.9368 117.667 48.7484C117.518 48.6542 117.388 48.583 117.274 48.5351C117.162 48.4878 117.06 48.4604 116.971 48.4604C116.903 48.4604 116.839 48.4762 116.785 48.5152C116.73 48.5544 116.696 48.6103 116.677 48.6731C116.64 48.7932 116.655 48.9531 116.699 49.1353C116.789 49.505 117.019 50.0337 117.363 50.685C118.052 51.991 119.213 53.8184 120.683 55.9116C123.622 60.0957 127.804 65.3525 131.94 69.6501C133.671 72.8128 136.221 75.4518 139.322 77.2905C142.427 79.1314 145.971 80.102 149.581 80.1004H200.581C205.912 80.1004 211.025 77.9827 214.794 74.2132C218.564 70.4438 220.681 65.3312 220.681 60.0004C220.681 54.6695 218.564 49.557 214.794 45.7875C211.025 42.0181 205.912 39.9004 200.581 39.9004ZM140.864 43.2138C143.558 41.8201 146.548 41.0952 149.581 41.1004L200.581 41.1004C205.594 41.1004 210.401 43.0916 213.946 46.6361C217.49 50.1805 219.481 54.9878 219.481 60.0004C219.481 65.013 217.49 69.8203 213.946 73.3647C210.401 76.9091 205.594 78.9004 200.581 78.9004H149.581C146.187 78.9015 142.855 77.9886 139.936 76.2575C137.016 74.5264 134.616 72.0411 132.989 69.0624L132.922 68.9399L132.813 68.8303C127.646 63.4787 123.042 57.612 119.072 51.3224C120.496 52.1776 122.135 52.6153 123.802 52.5804C126.636 52.5801 129.983 51.5118 133.73 49.4379L133.949 49.3174L134.102 49.1097L134.103 49.108C135.851 46.6292 138.17 44.6076 140.864 43.2138Z" fill="white"/>
<path d="M156.011 58.3204C156.634 58.3087 157.251 58.4458 157.811 58.7204C158.309 58.9727 158.723 59.3656 159.001 59.8504C159.297 60.3597 159.446 60.9414 159.431 61.5304C159.452 62.2052 159.296 62.8737 158.981 63.4704C158.713 63.9822 158.303 64.4058 157.801 64.6904C157.301 64.9638 156.74 65.1049 156.171 65.1004H151.081V63.1004H155.881C156.107 63.1024 156.329 63.04 156.521 62.9204C156.709 62.8069 156.867 62.6489 156.981 62.4604C157.098 62.2602 157.16 62.0325 157.161 61.8004C157.164 61.5678 157.102 61.339 156.981 61.1404C156.871 60.9438 156.712 60.7785 156.521 60.6604C156.326 60.5486 156.105 60.4899 155.881 60.4904H154.011C153.415 60.4978 152.825 60.3642 152.291 60.1004C151.786 59.8559 151.36 59.4748 151.061 59.0004C150.749 58.4672 150.594 57.8576 150.611 57.2404C150.597 56.6312 150.749 56.0298 151.051 55.5004C151.32 55.0061 151.726 54.5999 152.221 54.3304C152.717 54.0484 153.28 53.9034 153.851 53.9104H158.751V55.9104H154.091C153.882 55.911 153.678 55.9699 153.501 56.0804C153.32 56.1849 153.171 56.3371 153.071 56.5204C152.973 56.707 152.921 56.9146 152.921 57.1254C152.921 57.3362 152.973 57.5438 153.071 57.7304C153.172 57.9066 153.318 58.0535 153.493 58.1569C153.668 58.2603 153.867 58.3166 154.071 58.3204H156.011Z" fill="white"/>
<path d="M170.109 59.0004C170.486 58.3616 171.029 57.8365 171.679 57.4804C172.366 57.1064 173.138 56.9169 173.919 56.9304H174.919V58.7904H173.919C173.514 58.7826 173.114 58.8827 172.759 59.0804C172.439 59.2741 172.177 59.5504 171.999 59.8804C171.828 60.2284 171.742 60.6124 171.749 61.0004C171.737 61.3973 171.82 61.7914 171.989 62.1504C172.17 62.4724 172.432 62.7413 172.749 62.9304C173.109 63.1315 173.517 63.2317 173.929 63.2204H174.929V65.0804H173.929C173.146 65.0941 172.371 64.9083 171.679 64.5404C171.038 64.1988 170.497 63.6955 170.109 63.0804C169.727 62.4546 169.53 61.7336 169.539 61.0004C169.54 60.2937 169.737 59.6011 170.109 59.0004Z" fill="white"/>
<path fill-rule="evenodd" clip-rule="evenodd" d="M166.81 57.3208C166.143 56.9055 165.365 56.7032 164.58 56.7408C163.858 56.7283 163.146 56.9114 162.52 57.2708C161.91 57.6227 161.411 58.139 161.08 58.7608C160.717 59.4507 160.535 60.2213 160.55 61.0008C160.543 61.7323 160.736 62.4517 161.11 63.0808C161.509 63.7162 162.077 64.2285 162.75 64.5608C163.505 64.9321 164.339 65.1141 165.18 65.0908H167.45V63.2208H165.17C164.807 63.2268 164.445 63.1728 164.1 63.0608C163.805 62.9507 163.539 62.7765 163.32 62.5508C163.111 62.3133 162.963 62.0283 162.89 61.7208H168.41C168.418 61.6142 168.418 61.5073 168.41 61.4008C168.419 61.2709 168.419 61.1406 168.41 61.0108C168.422 60.2778 168.286 59.5499 168.01 58.8708C167.772 58.2466 167.354 57.7071 166.81 57.3208ZM162.87 60.2408C162.903 60.0294 162.957 59.8218 163.03 59.6208C163.116 59.4248 163.23 59.2428 163.37 59.0808C163.513 58.9186 163.686 58.7861 163.88 58.6908C164.108 58.5954 164.353 58.5478 164.6 58.5508C164.79 58.5458 164.979 58.5728 165.16 58.6308C165.321 58.6795 165.472 58.7538 165.61 58.8508C165.735 58.9524 165.846 59.0701 165.94 59.2008C166.04 59.3483 166.118 59.5101 166.17 59.6808C166.224 59.8636 166.26 60.0511 166.28 60.2408H162.87Z" fill="white"/>
<path d="M182.021 62.5297C182.18 62.2532 182.263 61.939 182.261 61.6197V56.9297H184.451V61.6197C184.458 62.2649 184.292 62.9003 183.971 63.4597C183.652 64.0227 183.181 64.4839 182.611 64.7897C181.952 65.1359 181.214 65.3047 180.471 65.2797C179.724 65.3011 178.984 65.1325 178.321 64.7897C177.752 64.4786 177.278 64.0189 176.951 63.4597C176.637 62.8977 176.475 62.2635 176.481 61.6197V56.9297H178.681V61.6197C178.678 61.939 178.761 62.2532 178.921 62.5297C179.078 62.8004 179.304 63.0244 179.577 63.179C179.849 63.3336 180.158 63.4132 180.471 63.4097C180.784 63.4148 181.092 63.3316 181.361 63.1697C181.633 63.0186 181.861 62.7977 182.021 62.5297Z" fill="white"/>
<path fill-rule="evenodd" clip-rule="evenodd" d="M199.271 58.8706C199.023 58.2348 198.583 57.6926 198.011 57.3206C197.336 56.8981 196.546 56.6955 195.751 56.7406C195.026 56.7307 194.312 56.9136 193.681 57.2706C193.071 57.6225 192.572 58.1388 192.241 58.7606C191.892 59.4542 191.723 60.2246 191.751 61.0006C191.744 61.732 191.938 62.4515 192.311 63.0806C192.704 63.7046 193.256 64.2121 193.911 64.5506C194.67 64.9209 195.507 65.1027 196.351 65.0806H198.651V63.2206H196.381C196.018 63.2274 195.656 63.1733 195.311 63.0606C195.014 62.9484 194.745 62.7745 194.521 62.5506C194.316 62.3107 194.168 62.0266 194.091 61.7206H199.611C199.619 61.6141 199.619 61.507 199.611 61.4006V61.0106C199.642 60.2816 199.527 59.5539 199.271 58.8706ZM194.071 60.2406C194.109 60.0302 194.162 59.823 194.231 59.6206C194.317 59.4246 194.431 59.2426 194.571 59.0806C194.714 58.9184 194.887 58.7859 195.081 58.6906C195.31 58.5973 195.554 58.5498 195.801 58.5506C195.991 58.5456 196.18 58.5726 196.361 58.6306C196.522 58.6793 196.674 58.7536 196.811 58.8506C196.939 58.952 197.053 59.0696 197.151 59.2006C197.248 59.3486 197.322 59.5104 197.371 59.6806C197.425 59.8634 197.462 60.0509 197.481 60.2406H194.071Z" fill="white"/>
<path d="M186.58 58.342C186.684 58.0513 186.848 57.7852 187.06 57.5602C187.284 57.3467 187.55 57.1809 187.84 57.0726C188.131 56.9643 188.44 56.9159 188.75 56.9302H190.99V58.8502H189.11C188.975 58.8505 188.845 58.9045 188.75 59.0002C188.675 59.09 188.636 59.2037 188.64 59.3202V65.0902H186.45V59.2502C186.43 58.9417 186.475 58.6326 186.58 58.342Z" fill="white"/>
<path d="M345 32C329.537 32 317 44.5365 317 60C317 75.4635 329.537 88 345 88C360.463 88 373 75.4635 373 60C373 44.5365 360.463 32 345 32Z" fill="#DBFF00"/>
<path d="M323.337 56.5718C322.831 54.315 322.842 53.3742 322.863 51.4982C322.954 50.5107 323.581 49.4691 324.087 49.1518C324.66 48.8307 324.653 49.4318 324.64 50.2643C327.548 44.4683 332.629 40.427 338.578 39.1763C340.07 38.8907 341.615 38.8105 343.17 38.943C348.057 39.3555 353.049 41.8065 356.199 45.3401C356.987 46.2249 357.881 47.2273 357.375 47.959C356.677 48.967 355.275 48.3939 354.654 47.5707C350.98 42.7043 344.822 40.1171 338.965 40.9777C337.156 41.2446 334.378 42.0398 331.421 44.3246C329.523 45.7918 328.28 47.8283 326.831 49.6875C326.816 49.7099 326.59 50.0217 326.211 50.703C326.249 50.6713 326.286 50.6395 326.322 50.6097L326.589 50.3969C326.676 50.3297 326.911 50.1523 327.199 50.1262C328.052 50.0478 328.287 51.3097 327.626 52.411C327.563 52.5155 327.387 52.7843 327.113 53.0065C325.224 54.5315 324.433 55.3865 323.337 56.5699V56.5718ZM344.613 57.4697C342.037 55.5302 342.674 51.2835 346.454 50.6787C348.628 50.4398 350.614 51.9649 350.879 54.0817C351.299 57.4267 347.376 59.5491 344.613 57.4715V57.4697ZM330.919 60.7662C328.381 59.3774 328.562 54.6398 331.905 53.475C333.609 52.9859 335.254 54.0499 335.731 55.9521C336.54 59.1777 333.527 62.1923 330.919 60.7662ZM359.847 65.6849C359.634 65.9873 357.947 67.4843 357.525 64.7123H357.523C356.173 66.8011 348.906 77.0659 337.906 74.8259C329.898 73.1945 323.593 66.7843 325.974 65.1753C326.129 65.0987 326.684 64.9158 327.294 65.7353C331.643 71.563 338.307 72.7091 341.561 72.4683C349.78 71.8598 354.686 63.7715 354.891 63.4262C354.913 63.387 354.934 63.3534 354.954 63.3217C355.001 63.2414 355.066 63.1331 355.128 63.0323H355.124L354.512 63.2545C354.103 63.3945 353.711 63.3739 353.349 63.1947C352.375 62.715 352.083 61.259 353.106 60.3705C353.23 60.2622 353.437 60.083 359.072 58.2238C359.806 60.8894 359.942 62.0411 360.217 64.3353C360.224 64.5275 360.25 65.1099 359.845 65.6849H359.847Z" fill="#2D00F7"/>
<path d="M477.836 41C488.316 41 496.836 49.52 496.836 60C496.836 70.48 488.316 79 477.836 79H417.836C410.886 79 404.496 75.21 401.156 69.11L401.096 68.99L401.006 68.89C394.746 62.44 389.266 54.8 387.046 51.01C388.466 51.99 390.166 52.48 392.096 52.48C394.906 52.48 398.236 51.43 401.976 49.36L402.176 49.25L402.306 49.06C405.876 44.01 411.676 41 417.836 41H477.836ZM477.836 40H417.836C411.086 40 405.116 43.36 401.496 48.49C398.256 50.28 394.986 51.49 392.096 51.49C390.176 51.49 388.426 50.95 386.966 49.69C386.066 48.91 385.496 48.56 385.216 48.56C383.536 48.56 391.966 61.02 400.276 69.59C403.676 75.79 410.256 80 417.826 80H477.826C488.876 80 497.826 71.05 497.826 60C497.826 48.95 488.876 40 477.836 40Z" fill="white"/>
<path fill-rule="evenodd" clip-rule="evenodd" d="M474.404 57.9397V53.4297H476.594V60.8697C476.594 61.7597 476.414 62.5497 476.064 63.2197C475.714 63.8897 475.214 64.3997 474.574 64.7597C473.934 65.1197 473.174 65.2997 472.284 65.2997C471.604 65.2997 470.984 65.1897 470.444 64.9797C469.914 64.7497 469.464 64.4397 469.104 64.0497C468.744 63.6397 468.464 63.1697 468.274 62.6397C468.084 62.0897 467.984 61.4997 467.984 60.8597C467.984 60.0497 468.144 59.3397 468.464 58.7297C468.794 58.1097 469.254 57.6197 469.844 57.2697C470.444 56.9197 471.134 56.7397 471.924 56.7397C472.274 56.7397 472.594 56.7797 472.904 56.8797C473.224 56.9797 473.504 57.1197 473.764 57.2997C474.014 57.4797 474.224 57.6897 474.384 57.9397H474.404ZM473.414 63.0897C473.724 62.8797 473.954 62.5897 474.114 62.2297C474.284 61.8597 474.374 61.4597 474.374 61.0097C474.374 60.5597 474.284 60.1497 474.114 59.7897C473.954 59.4297 473.724 59.1397 473.414 58.9297C473.104 58.7197 472.724 58.6097 472.294 58.6097C471.864 58.6097 471.494 58.7197 471.174 58.9297C470.864 59.1397 470.624 59.4297 470.454 59.7897C470.294 60.1597 470.214 60.5597 470.214 61.0097C470.214 61.4597 470.294 61.8697 470.454 62.2297C470.624 62.5897 470.864 62.8797 471.174 63.0897C471.494 63.2997 471.854 63.4097 472.294 63.4097C472.734 63.4097 473.104 63.2997 473.414 63.0897Z" fill="white"/>
<path d="M418.504 55.9099H421.624V61.7499C421.624 62.3599 421.764 62.9199 422.044 63.4299C422.324 63.9299 422.714 64.3399 423.214 64.6499C423.714 64.9499 424.294 65.0999 424.954 65.0999H425.754V63.0799H424.954C424.664 63.0799 424.424 62.9799 424.214 62.7799C424.014 62.5699 423.914 62.3199 423.914 62.0299V55.9199H427.034V53.8999H418.504V55.9099Z" fill="white"/>
<path d="M428.602 57.559C428.192 57.969 427.992 58.529 427.992 59.259V65.099H430.182V59.319C430.182 59.169 430.232 59.049 430.322 58.949C430.432 58.849 430.552 58.809 430.692 58.809H432.562V56.939H430.302C429.572 56.939 429.002 57.149 428.592 57.559H428.602Z" fill="white"/>
<path d="M439.645 62.5292C439.805 62.2492 439.885 61.9492 439.885 61.6192H439.875V56.9292H442.065V61.6192C442.065 62.2892 441.905 62.9092 441.585 63.4592C441.275 64.0192 440.825 64.4592 440.225 64.7892C439.645 65.1192 438.915 65.2892 438.085 65.2892C437.255 65.2892 436.545 65.1192 435.945 64.7892C435.345 64.4592 434.885 64.0092 434.565 63.4592C434.255 62.9092 434.105 62.2892 434.105 61.6192V56.9292H436.295V61.6192C436.295 61.9492 436.375 62.2492 436.535 62.5292C436.695 62.7992 436.905 63.0092 437.175 63.1692C437.455 63.3292 437.755 63.4092 438.085 63.4092C438.415 63.4092 438.715 63.3292 438.985 63.1692C439.265 63.0092 439.485 62.7992 439.645 62.5292Z" fill="white"/>
<path d="M449.685 60.2392C449.255 60.0592 448.755 59.9692 448.165 59.9692H446.625C446.455 59.9692 446.315 59.9192 446.195 59.8092C446.075 59.6892 446.015 59.5492 446.015 59.3792C446.015 59.2092 446.075 59.0692 446.195 58.9592C446.325 58.8492 446.465 58.7992 446.625 58.7992H450.245V56.9292H446.425C445.955 56.9292 445.525 57.0492 445.125 57.2792C444.745 57.4992 444.435 57.8092 444.195 58.1892C443.975 58.5592 443.855 58.9792 443.855 59.4392C443.855 60.0392 443.975 60.5192 444.225 60.8992C444.485 61.2592 444.815 61.5292 445.235 61.6992C445.665 61.8592 446.135 61.9392 446.655 61.9392H448.195C448.325 61.9392 448.435 61.9692 448.535 62.0392C448.645 62.0892 448.725 62.1692 448.775 62.2592C448.835 62.3592 448.875 62.4692 448.875 62.5992C448.875 62.7192 448.845 62.8192 448.775 62.9192C448.725 63.0192 448.645 63.0892 448.535 63.1392C448.435 63.1892 448.325 63.2192 448.195 63.2192H444.215V65.0892H448.405C448.895 65.0892 449.335 64.9792 449.735 64.7492C450.125 64.5192 450.445 64.2092 450.675 63.8192C450.905 63.4292 451.025 62.9892 451.025 62.5192C451.025 61.9092 450.905 61.4192 450.675 61.0492C450.445 60.6792 450.105 60.3992 449.685 60.2292V60.2392Z" fill="white"/>
<path d="M453.273 54.8804H455.463V56.9404H457.753V58.8104H455.463V62.7104C455.463 62.8504 455.503 62.9704 455.603 63.0804C455.713 63.1704 455.833 63.2204 455.973 63.2204H457.753V65.0904H455.593C454.873 65.0904 454.303 64.8904 453.883 64.4704C453.473 64.0504 453.273 63.4804 453.273 62.7704V58.8004H451.883V56.9304H453.273V54.8804Z" fill="white"/>
<path fill-rule="evenodd" clip-rule="evenodd" d="M465.234 57.3198C464.664 56.9398 463.924 56.7398 463.014 56.7398C462.244 56.7398 461.554 56.9198 460.954 57.2698C460.344 57.6198 459.864 58.1198 459.514 58.7598C459.164 59.3998 458.984 60.1498 458.984 61.0198C458.984 61.7898 459.174 62.4798 459.544 63.0998C459.924 63.7198 460.464 64.2098 461.144 64.5698C461.834 64.9198 462.644 65.0998 463.574 65.0998H465.874V63.2298H463.604C463.214 63.2298 462.854 63.1798 462.534 63.0698C462.224 62.9498 461.964 62.7798 461.754 62.5598C461.554 62.3398 461.404 62.0598 461.324 61.7298H466.844C466.864 61.6598 466.884 61.5498 466.894 61.4098L466.899 61.3454C466.907 61.2226 466.914 61.1151 466.914 61.0298C466.914 60.2398 466.784 59.5298 466.514 58.8898C466.244 58.2398 465.824 57.7198 465.254 57.3398L465.234 57.3198ZM461.294 60.2498C461.324 60.0398 461.384 59.8298 461.454 59.6298C461.544 59.4298 461.654 59.2498 461.794 59.0898C461.934 58.9298 462.104 58.7998 462.304 58.7098C462.514 58.6098 462.754 58.5698 463.024 58.5698C463.224 58.5698 463.414 58.5998 463.584 58.6498C463.754 58.6998 463.904 58.7798 464.034 58.8698C464.164 58.9698 464.274 59.0798 464.374 59.2198C464.474 59.3598 464.544 59.5198 464.594 59.6998C464.644 59.8698 464.684 60.0598 464.704 60.2598H461.294V60.2498Z" fill="white"/>
<path d="M623 32C607.537 32 595 44.5365 595 60C595 75.4635 607.537 88 623 88C638.463 88 651 75.4635 651 60C651 44.5365 638.463 32 623 32Z" fill="#DBFF00"/>
<path d="M601.337 56.5718C600.831 54.315 600.842 53.3742 600.863 51.4982C600.954 50.5107 601.581 49.4691 602.087 49.1518C602.66 48.8307 602.653 49.4318 602.64 50.2643C605.548 44.4683 610.629 40.427 616.578 39.1763C618.07 38.8907 619.615 38.8105 621.17 38.943C626.057 39.3555 631.049 41.8065 634.199 45.3401C634.987 46.2249 635.881 47.2273 635.375 47.959C634.677 48.967 633.275 48.3939 632.654 47.5707C628.98 42.7043 622.822 40.1171 616.965 40.9777C615.156 41.2446 612.378 42.0398 609.421 44.3246C607.523 45.7918 606.28 47.8283 604.831 49.6875C604.816 49.7099 604.59 50.0217 604.211 50.703C604.249 50.6713 604.286 50.6395 604.322 50.6097L604.589 50.3969C604.676 50.3297 604.911 50.1523 605.199 50.1262C606.052 50.0478 606.287 51.3097 605.626 52.411C605.563 52.5155 605.387 52.7843 605.113 53.0065C603.224 54.5315 602.433 55.3865 601.337 56.5699V56.5718ZM622.613 57.4697C620.037 55.5302 620.674 51.2835 624.454 50.6787C626.628 50.4398 628.614 51.9649 628.879 54.0817C629.299 57.4267 625.376 59.5491 622.613 57.4715V57.4697ZM608.919 60.7662C606.381 59.3774 606.562 54.6398 609.905 53.475C611.609 52.9859 613.254 54.0499 613.731 55.9521C614.54 59.1777 611.527 62.1923 608.919 60.7662ZM637.847 65.6849C637.634 65.9873 635.947 67.4843 635.525 64.7123H635.523C634.173 66.8011 626.906 77.0659 615.906 74.8259C607.898 73.1945 601.593 66.7843 603.974 65.1753C604.129 65.0987 604.684 64.9158 605.294 65.7353C609.643 71.563 616.307 72.7091 619.561 72.4683C627.78 71.8598 632.686 63.7715 632.891 63.4262C632.913 63.387 632.934 63.3534 632.954 63.3217C633.001 63.2414 633.066 63.1331 633.128 63.0323H633.124L632.512 63.2545C632.103 63.3945 631.711 63.3739 631.349 63.1947C630.375 62.715 630.083 61.259 631.106 60.3705C631.23 60.2622 631.437 60.083 637.072 58.2238C637.806 60.8894 637.942 62.0411 638.217 64.3353C638.224 64.5275 638.25 65.1099 637.845 65.6849H637.847Z" fill="#2D00F7"/>
<path fill-rule="evenodd" clip-rule="evenodd" d="M696.168 39.9004C692.856 39.9004 689.595 40.7188 686.676 42.2828C683.764 43.8431 681.281 46.0972 679.448 48.8455C676.843 50.3452 673.924 51.2167 670.924 51.3905C669.089 51.4326 667.302 50.8006 665.902 49.6141L665.902 49.6134C665.43 49.2224 665.052 48.9368 664.754 48.7484C664.605 48.6542 664.474 48.583 664.361 48.5351C664.248 48.4878 664.147 48.4604 664.058 48.4604C663.993 48.4604 663.931 48.4749 663.878 48.5106C663.824 48.5467 663.789 48.5985 663.768 48.6579C663.728 48.771 663.737 48.9211 663.774 49.0902C663.848 49.4335 664.052 49.9239 664.362 50.5286C664.982 51.7414 666.042 53.444 667.398 55.4109C670.108 59.3422 674.009 64.3407 677.974 68.6171C679.606 72.056 682.18 74.9609 685.399 76.9939C688.621 79.0295 692.356 80.1069 696.168 80.1004H801.168C806.499 80.1004 811.611 77.9827 815.381 74.2132C819.15 70.4438 821.268 65.3312 821.268 60.0004C821.268 54.6695 819.15 49.557 815.381 45.7875C811.611 42.0181 806.499 39.9004 801.168 39.9004H696.168ZM687.233 43.3446C689.981 41.8711 693.05 41.1001 696.168 41.1004H801.168C806.18 41.1004 810.988 43.0916 814.532 46.6361C818.076 50.1805 820.068 54.9878 820.068 60.0004C820.068 65.013 818.076 69.8203 814.532 73.3647C810.988 76.9091 806.18 78.9004 801.168 78.9004H696.168C692.585 78.8866 689.079 77.8592 686.054 75.937C683.03 74.0148 680.612 71.2762 679.078 68.0376L679.002 67.8853L678.895 67.7563L678.891 67.7519C674.136 62.6927 669.874 57.1927 666.161 51.3264C667.592 52.1923 669.242 52.6358 670.92 52.6004L670.923 52.6002C674.123 52.4292 677.238 51.5069 680.016 49.9081L680.267 49.7772L680.421 49.5457C682.146 46.9485 684.486 44.8182 687.233 43.3446Z" fill="white"/>
<path d="M771.364 53.2001C771.177 53.1959 770.992 53.2311 770.819 53.3035C770.647 53.3759 770.492 53.4837 770.364 53.6201C770.23 53.7489 770.126 53.9047 770.057 54.0771C769.988 54.2495 769.956 54.4346 769.964 54.6201C769.96 54.8051 769.993 54.9892 770.062 55.161C770.13 55.3329 770.233 55.4891 770.364 55.6201C770.496 55.7499 770.652 55.8522 770.824 55.9209C770.996 55.9895 771.179 56.0233 771.364 56.0201C771.549 56.0256 771.734 55.9929 771.906 55.9241C772.078 55.8553 772.234 55.7518 772.364 55.6201C772.496 55.4895 772.601 55.3337 772.671 55.1619C772.742 54.99 772.777 54.8058 772.774 54.6201C772.78 54.4339 772.747 54.2485 772.676 54.0762C772.605 53.9038 772.499 53.7484 772.364 53.6201C772.238 53.4817 772.083 53.3724 771.91 53.2999C771.738 53.2273 771.551 53.1933 771.364 53.2001Z" fill="white"/>
<path fill-rule="evenodd" clip-rule="evenodd" d="M704.634 54.6107C703.679 54.1111 702.612 53.8633 701.534 53.8907H697.754V65.0907H701.534C702.612 65.1182 703.679 64.8704 704.634 64.3707C705.475 63.9051 706.168 63.212 706.634 62.3707C707.133 61.4872 707.385 60.4854 707.364 59.4707C707.385 58.4593 707.133 57.4608 706.634 56.5807C706.166 55.7492 705.472 55.0665 704.634 54.6107ZM704.634 61.4107C704.337 61.9371 703.892 62.3648 703.354 62.6407C702.788 62.9406 702.155 63.092 701.514 63.0807H700.044V55.9107H701.534C702.174 55.8964 702.807 56.0443 703.374 56.3407C703.907 56.6227 704.351 57.0489 704.654 57.5707C704.974 58.1589 705.133 58.8213 705.114 59.4907C705.133 60.1601 704.974 60.8226 704.654 61.4107H704.634Z" fill="white"/>
<path d="M743.923 54.8809H746.113V56.9309H748.403V58.8009H746.113V62.7109C746.113 62.849 746.167 62.9818 746.263 63.0809C746.361 63.172 746.49 63.2221 746.623 63.2209H748.403V65.1209H746.243C745.931 65.1502 745.617 65.1103 745.322 65.0041C745.027 64.8979 744.759 64.7279 744.538 64.5063C744.316 64.2848 744.146 64.017 744.04 63.7222C743.934 63.4274 743.894 63.1128 743.923 62.8009V58.8009H742.533V56.8809H743.923V54.8809Z" fill="white"/>
<path fill-rule="evenodd" clip-rule="evenodd" d="M714.704 57.3206C714.04 56.9061 713.266 56.7038 712.484 56.7406C711.759 56.7307 711.045 56.9136 710.414 57.2706C709.804 57.6226 709.305 58.1389 708.974 58.7606C708.611 59.4506 708.429 60.2212 708.444 61.0006C708.437 61.7321 708.631 62.4515 709.004 63.0806C709.397 63.7046 709.949 64.2122 710.604 64.5506C711.363 64.9209 712.2 65.1027 713.044 65.0806H715.344V63.2206H713.074C712.711 63.2274 712.349 63.1733 712.004 63.0606C711.707 62.9507 711.437 62.7765 711.214 62.5506C711.005 62.3131 710.858 62.0282 710.784 61.7206H716.304C716.33 61.6154 716.346 61.5084 716.354 61.4006V61.0106C716.366 60.2776 716.23 59.5497 715.954 58.8706C715.709 58.2362 715.272 57.6942 714.704 57.3206ZM710.764 60.2406C710.802 60.0303 710.856 59.823 710.924 59.6206C711.01 59.4247 711.125 59.2427 711.264 59.0806C711.407 58.9184 711.58 58.7859 711.774 58.6906C712.002 58.5953 712.247 58.5476 712.494 58.5506C712.684 58.5456 712.873 58.5726 713.054 58.6306C713.215 58.6794 713.367 58.7536 713.504 58.8506C713.632 58.952 713.747 59.0696 713.844 59.2006C713.941 59.3486 714.015 59.5104 714.064 59.6806C714.118 59.8635 714.155 60.0509 714.174 60.2406H710.764Z" fill="white"/>
<path d="M737.348 56.7402C738.092 56.7402 738.826 56.9114 739.493 57.2404C740.055 57.5451 740.52 58.0028 740.833 58.5604C741.16 59.1184 741.333 59.7535 741.333 60.4004V65.0904H739.153V60.4004C739.158 60.087 739.075 59.7786 738.913 59.5104C738.757 59.2344 738.529 59.0061 738.253 58.8504C737.981 58.6886 737.67 58.6055 737.353 58.6104C737.034 58.6078 736.72 58.6906 736.443 58.8504C736.177 59.0127 735.957 59.2397 735.803 59.5104C735.641 59.7786 735.558 60.087 735.563 60.4004V65.0904H733.373V60.4004C733.37 59.7582 733.528 59.1254 733.833 58.5604C734.16 58.0026 734.634 57.5458 735.203 57.2404C735.87 56.9114 736.604 56.7402 737.348 56.7402Z" fill="white"/>
<path d="M718.004 59.0007C718.384 58.3641 718.925 57.8396 719.574 57.4807C720.267 57.1038 721.046 56.9142 721.834 56.9307H722.834V58.8007H721.834C721.426 58.789 721.022 58.8856 720.664 59.0807C720.344 59.2723 720.085 59.5493 719.914 59.8807C719.739 60.2278 719.65 60.6119 719.654 61.0007C719.648 61.3992 719.738 61.7933 719.914 62.1507C720.088 62.4747 720.347 62.7445 720.664 62.9307C721.021 63.1292 721.425 63.2293 721.834 63.2207H722.834V65.0807H721.834C721.047 65.0957 720.269 64.9099 719.574 64.5407C718.934 64.1965 718.394 63.6938 718.004 63.0807C717.622 62.4549 717.424 61.7339 717.434 61.0007C717.434 60.294 717.632 59.6014 718.004 59.0007Z" fill="white"/>
<path fill-rule="evenodd" clip-rule="evenodd" d="M727.934 56.7392C728.716 56.6998 729.491 56.9023 730.154 57.3192C730.7 57.7038 731.118 58.2438 731.354 58.8692C731.625 59.5497 731.761 60.2766 731.754 61.0092V61.3992C731.762 61.5057 731.762 61.6127 731.754 61.7192H726.234C726.311 62.0253 726.458 62.3093 726.664 62.5492C726.888 62.7732 727.157 62.947 727.454 63.0592C727.799 63.1712 728.161 63.2253 728.524 63.2192H730.834V65.0792H728.494C727.653 65.1025 726.819 64.9206 726.064 64.5492C725.405 64.2162 724.851 63.7074 724.464 63.0792C724.085 62.4524 723.891 61.7314 723.904 60.9992C723.885 60.2206 724.064 59.4501 724.424 58.7592C724.76 58.1418 725.258 57.6269 725.864 57.2692C726.494 56.9122 727.209 56.7293 727.934 56.7392ZM726.384 59.6192C726.306 59.8188 726.252 60.0269 726.224 60.2392H729.624C729.609 60.0488 729.572 59.8609 729.514 59.6792C729.465 59.509 729.391 59.3472 729.294 59.1992C729.196 59.0683 729.082 58.9506 728.954 58.8492C728.816 58.7523 728.664 58.678 728.504 58.6292C728.323 58.5705 728.133 58.5434 727.944 58.5492C727.697 58.5484 727.452 58.596 727.224 58.6892C727.03 58.7846 726.856 58.9171 726.714 59.0792C726.574 59.2391 726.462 59.4218 726.384 59.6192Z" fill="white"/>
<path d="M776.525 62.8693L779.835 60.6093C780.109 60.4229 780.339 60.1767 780.505 59.8893C780.695 59.6289 780.809 59.3208 780.835 58.9993C780.839 58.6474 780.745 58.3014 780.565 57.9993C780.402 57.6975 780.164 57.4427 779.875 57.2593C779.576 57.0716 779.227 56.9775 778.875 56.9893H774.445V58.7993H778.235C778.26 58.8017 778.284 58.8091 778.307 58.8211C778.329 58.8331 778.349 58.8495 778.365 58.8693C778.385 58.8842 778.401 58.9039 778.411 58.9266C778.422 58.9493 778.426 58.9743 778.425 58.9993C778.432 59.0254 778.432 59.0531 778.425 59.0793C778.425 59.0793 778.425 59.1293 778.345 59.1593L775.005 61.4093C774.726 61.5976 774.491 61.843 774.315 62.1293C774.146 62.417 774.059 62.7457 774.065 63.0793C774.063 63.4283 774.149 63.7722 774.315 64.0793C774.49 64.3728 774.734 64.6197 775.025 64.7993C775.324 64.987 775.672 65.081 776.025 65.0693H780.685V63.2193H776.685C776.659 63.2225 776.633 63.2198 776.608 63.2114C776.584 63.203 776.561 63.1891 776.543 63.1708C776.525 63.1525 776.511 63.1302 776.502 63.1057C776.494 63.0811 776.491 63.055 776.495 63.0293C776.491 63.0027 776.491 62.9758 776.495 62.9493C776.499 62.9207 776.509 62.8935 776.525 62.8693Z" fill="white"/>
<path d="M750.134 58.3414C750.239 58.0507 750.403 57.7847 750.614 57.5596C750.841 57.3427 751.109 57.1748 751.404 57.0664C751.698 56.958 752.011 56.9114 752.324 56.9296H754.584V58.7996H752.704C752.637 58.7987 752.571 58.8115 752.509 58.8373C752.447 58.8631 752.391 58.9013 752.344 58.9496C752.294 58.9969 752.255 59.0545 752.229 59.1183C752.203 59.1821 752.191 59.2508 752.194 59.3196V65.0896H750.004V59.2496C749.985 58.9412 750.029 58.6321 750.134 58.3414Z" fill="white"/>
<path fill-rule="evenodd" clip-rule="evenodd" d="M797.534 57.9402V53.4102H799.724V60.8102C799.747 61.6255 799.565 62.4334 799.194 63.1602C798.865 63.8089 798.35 64.3449 797.714 64.7002C797.01 65.0748 796.222 65.2608 795.424 65.2402C794.796 65.2532 794.171 65.1445 793.584 64.9202C793.075 64.7122 792.614 64.3987 792.234 64.0002C791.875 63.5989 791.594 63.1344 791.404 62.6302C791.209 62.0573 791.111 61.4556 791.114 60.8502C791.098 60.1116 791.263 59.3803 791.594 58.7202C791.915 58.1213 792.392 57.6203 792.974 57.2702C793.607 56.9073 794.326 56.724 795.054 56.7402C795.393 56.7385 795.73 56.7857 796.054 56.8802C796.361 56.9752 796.651 57.1169 796.914 57.3002C797.162 57.4694 797.373 57.6871 797.534 57.9402ZM796.544 63.0902C796.854 62.8752 797.097 62.5771 797.244 62.2302C797.42 61.8478 797.509 61.4311 797.504 61.0102C797.509 60.5924 797.421 60.1789 797.244 59.8002C797.098 59.4496 796.856 59.1478 796.544 58.9302C796.213 58.7113 795.822 58.5996 795.424 58.6102C795.028 58.6033 794.638 58.7147 794.304 58.9302C793.99 59.1501 793.742 59.4507 793.584 59.8002C793.42 60.182 793.338 60.5944 793.344 61.0102C793.338 61.4291 793.42 61.8447 793.584 62.2302C793.742 62.5768 793.991 62.8741 794.304 63.0902C794.635 63.3108 795.027 63.4227 795.424 63.4102C795.822 63.4254 796.215 63.3133 796.544 63.0902Z" fill="white"/>
<path fill-rule="evenodd" clip-rule="evenodd" d="M788.394 57.3208C787.726 56.9055 786.949 56.7032 786.164 56.7408C785.442 56.7283 784.73 56.9114 784.104 57.2708C783.494 57.6227 782.995 58.139 782.664 58.7608C782.301 59.4507 782.119 60.2213 782.134 61.0008C782.127 61.7323 782.32 62.4517 782.694 63.0808C783.084 63.707 783.637 64.2152 784.294 64.5508C785.049 64.9221 785.883 65.1041 786.724 65.0808H789.034V63.2208H786.754C786.391 63.2268 786.029 63.1728 785.684 63.0608C785.389 62.9507 785.123 62.7765 784.904 62.5508C784.695 62.3133 784.547 62.0283 784.474 61.7208H789.994C790.002 61.6142 790.002 61.5073 789.994 61.4008C790.003 61.2709 790.003 61.1406 789.994 61.0108C790.006 60.2778 789.87 59.5499 789.594 58.8708C789.356 58.2466 788.938 57.7071 788.394 57.3208ZM784.454 60.2408C784.487 60.0294 784.54 59.8218 784.614 59.6208C784.7 59.4248 784.814 59.2428 784.954 59.0808C785.097 58.9186 785.27 58.7861 785.464 58.6908C785.692 58.5954 785.937 58.5478 786.184 58.5508C786.374 58.5458 786.563 58.5728 786.744 58.6308C786.904 58.6795 787.056 58.7538 787.194 58.8508C787.319 58.9524 787.43 59.0701 787.524 59.2008C787.624 59.3483 787.702 59.5101 787.754 59.6808C787.808 59.8636 787.844 60.0511 787.864 60.2408H784.454Z" fill="white"/>
<path fill-rule="evenodd" clip-rule="evenodd" d="M759.653 56.7393C760.466 56.7089 761.27 56.91 761.973 57.3193C762.576 57.6843 763.064 58.2109 763.383 58.8393C763.724 59.5075 763.896 60.2493 763.883 60.9993V65.0593H761.693V63.6993C761.528 63.9901 761.323 64.256 761.083 64.4893C760.833 64.7312 760.537 64.9214 760.213 65.0493C759.692 65.2287 759.138 65.2886 758.591 65.2246C758.044 65.1605 757.518 64.9742 757.053 64.6793C756.493 64.2884 756.044 63.7575 755.753 63.1393C755.447 62.468 755.293 61.7371 755.303 60.9993C755.304 60.2504 755.486 59.5127 755.833 58.8493C756.178 58.2106 756.694 57.6808 757.323 57.3193C758.032 56.9162 758.838 56.7155 759.653 56.7393ZM760.733 63.0893C761.043 62.8744 761.286 62.5763 761.433 62.2293C761.606 61.8423 761.694 61.4231 761.693 60.9993C761.699 60.5847 761.611 60.1742 761.433 59.7993C761.287 59.4488 761.044 59.147 760.733 58.9293C760.405 58.7118 760.017 58.6002 759.623 58.6093C759.223 58.6005 758.829 58.712 758.493 58.9293C758.179 59.1493 757.931 59.4498 757.773 59.7993C757.608 60.1773 757.526 60.5867 757.533 60.9993C757.53 61.4213 757.611 61.8396 757.773 62.2293C757.931 62.576 758.18 62.8733 758.493 63.0893C758.829 63.3067 759.223 63.4182 759.623 63.4093C760.018 63.4232 760.407 63.3111 760.733 63.0893Z" fill="white"/>
<path d="M768.184 53.4102H765.994V65.0902H768.184V53.4102Z" fill="white"/>
<path d="M770.254 56.9297H772.464V65.0897H770.254V56.9297Z" fill="white"/>
</svg>
