<svg width="40" height="40" viewBox="0 0 40 40" fill="none" xmlns="http://www.w3.org/2000/svg">
<path fill-rule="evenodd" clip-rule="evenodd" d="M20 38.05C29.9687 38.05 38.05 29.9687 38.05 20C38.05 10.0313 29.9687 1.95 20 1.95C10.0313 1.95 1.95 10.0313 1.95 20C1.95 29.9687 10.0313 38.05 20 38.05ZM20 39C30.4934 39 39 30.4934 39 20C39 9.50659 30.4934 1 20 1C9.50659 1 1 9.50659 1 20C1 30.4934 9.50659 39 20 39Z" fill="#2D00F7"/>
<path d="M13.6516 10.5C12.3477 10.5023 11.5 11.3622 11.5 12.4869C11.5 13.6131 12.3287 14.4631 13.6037 14.4631H13.625C14.9531 14.4631 15.7819 13.5812 15.7819 12.4869C15.7607 11.3622 14.9553 10.5023 13.6516 10.5Z" fill="#2D00F7"/>
<path d="M13.6516 10.5L13.6569 10.5H13.6462L13.6516 10.5Z" fill="#2D00F7"/>
<path d="M15.5375 16.025H11.7231V27.5H15.5375V16.025Z" fill="#2D00F7"/>
<path d="M21.4663 17.6506C21.9657 16.875 22.8688 15.7594 24.8982 15.7594H24.9088C27.4163 15.7594 29.2969 17.3956 29.2969 20.9231V27.5H25.4825V21.3588C25.4825 19.8181 24.93 18.7663 23.5488 18.7663C22.4969 18.7663 21.87 19.4781 21.5938 20.1581C21.4875 20.4131 21.4663 20.7531 21.4663 21.0931V27.5H17.6519C17.6519 27.5 17.705 17.0981 17.6519 16.025H21.4663V17.6506Z" fill="#2D00F7"/>
</svg>
