<svg width="174" height="152" viewBox="0 0 174 152" fill="none" xmlns="http://www.w3.org/2000/svg">
<path d="M8.30907 61.0549C9.78737 61.6306 11.789 61.2773 13.2673 60.5578C13.3327 60.6756 13.4242 60.7671 13.5289 60.8718C16.9041 63.6452 20.698 65.7253 24.8059 67.0728C28.8483 68.3941 33.1654 68.9697 37.2994 68.7342C39.7982 68.5903 42.2053 68.1979 44.4555 67.5307C44.6909 67.4653 44.9264 67.3214 45.1227 67.1382C45.4628 66.8111 45.646 66.3533 45.502 65.8431C45.4105 65.4637 45.1227 65.1235 44.7825 64.9142C44.4816 64.7572 44.1415 64.718 43.8275 64.7965C42.8333 65.0974 41.839 65.3328 40.884 65.5029C40.4 65.5945 39.9159 65.673 39.4057 65.7384C39.1702 65.7776 38.9216 65.8038 38.6862 65.83L38.1367 65.8823C36.1613 66.0524 34.1335 66.0262 32.1319 65.8169C31.6479 65.7646 31.1377 65.6861 30.6536 65.6207L30.5228 65.5945H30.4574C30.3658 65.5945 30.2612 65.5552 30.1565 65.5291C29.8949 65.4898 29.6463 65.4375 29.3977 65.3983C28.4035 65.202 27.4092 64.9665 26.4411 64.6657C25.46 64.3648 24.4919 64.0246 23.563 63.6583C23.3275 63.5667 23.1051 63.4752 22.8958 63.3836L22.5949 63.2397C22.5164 63.2266 22.451 63.1874 22.3856 63.1481C21.9408 62.965 21.496 62.7164 21.0381 62.494C20.0308 61.9707 19.0366 61.3951 18.0946 60.7802C17.6367 60.4793 17.1789 60.1653 16.7341 59.8383C16.4986 59.6551 16.2631 59.4851 16.0276 59.3019L15.5043 58.8833C15.4258 58.8179 14.6278 58.1245 14.5232 58.0722C14.7848 57.3657 14.8895 57.4573 15.0203 56.7378C15.2034 55.7043 15.1773 54.6315 14.6671 53.6765C14.4054 53.1794 14.0522 52.7608 13.5158 52.5907C13.0056 52.4337 13.3327 52.3814 12.8617 52.5645C12.6655 52.643 12.4823 52.7738 12.2992 52.9177C11.0694 51.9758 9.91818 52.0151 8.37447 52.4991C6.54294 53.0747 5.07773 53.9512 4.94691 56.1491C4.81609 58.3469 6.4252 60.27 8.33522 61.0157L8.30907 61.0549Z" fill="#2D00F7"/>
<path d="M12.1154 51.7664C12.1154 51.7664 12.1154 51.7664 12.1023 51.7664H12.0761C11.0557 51.6617 9.99603 51.8841 8.97561 51.8449C7.7982 51.7926 6.63387 51.4786 5.49571 51.1254C4.69769 50.8768 3.91275 50.5105 3.10165 50.275C2.40829 49.948 1.70184 49.6602 1.1393 49.6602C0.511353 49.6602 0.0665608 50.0919 0.00114933 50.7329C-0.011933 50.9161 0.0665609 52.5121 1.30938 53.3494C2.66994 54.2782 4.44914 54.4744 6.05826 54.4614C5.61346 55.9397 5.35181 57.6011 6.13675 59.014C6.89553 60.3876 8.41306 61.2118 9.96986 61.238C11.5005 61.2642 13.018 60.5577 13.9992 59.3934C14.9804 58.2291 15.2813 56.7115 15.0589 55.2201C14.8234 53.5848 13.8815 51.9888 12.1154 51.7533V51.7664Z" fill="#2D00F7"/>
<path d="M71.1697 147.294C70.7904 150.46 75.5785 150.97 77.41 151.349C83.9381 152.736 90.5708 151.611 97.0988 150.708C97.8445 150.538 98.5772 150.381 99.3228 150.264C106.126 149.06 112.798 151.179 119.587 151.415C125.226 151.611 130.904 151.519 136.529 150.669C137.419 150.538 138.975 150.394 139.551 149.125C140.127 147.856 139.525 146.888 138.701 146.457C134.684 144.363 130.328 144.363 126.128 144.141C117.599 143.696 109.174 146.653 100.67 145.907C98.7865 145.737 96.9026 145.305 95.0319 144.874C94.417 144.73 93.789 144.599 93.148 144.481C89.5765 143.788 85.9266 143.67 82.3159 143.906C80.4713 144.023 78.6397 144.219 76.7951 144.507C75.2776 144.743 73.2629 144.769 71.9808 145.802C71.4968 146.195 71.2352 146.718 71.1697 147.281V147.294Z" fill="#E5E7EB"/>
<path d="M115.126 144.219C115.387 142.846 115.636 141.459 115.911 140.085C116.042 139.392 116.172 138.712 116.303 138.018C116.434 137.325 116.565 136.645 116.696 135.951C117.729 130.522 118.553 125.956 119.273 121.312C119.665 118.787 120.019 116.276 120.306 113.882C120.45 112.639 120.581 111.396 120.712 110.179C120.738 110.022 120.738 109.839 120.738 109.708C120.856 108.714 120.921 107.707 120.987 106.726V106.608C121.078 105.404 121.628 104.645 122.413 104.619C122.687 104.593 122.988 104.737 123.237 104.999C123.655 105.417 123.878 106.045 123.839 106.647C123.708 108.387 123.59 109.8 123.459 111.108C123.328 112.482 123.171 113.934 122.962 115.53C121.942 123.798 120.385 132.027 118.88 139.981C118.763 140.596 118.645 141.21 118.527 141.838C118.854 141.655 119.194 141.511 119.548 141.381C121.117 140.831 122.988 140.936 124.414 141.799C125.814 142.65 127.148 144.625 126.272 146.26C125.827 147.084 124.82 147.49 123.956 147.712C123.041 147.948 122.072 147.987 121.131 147.909C120.228 147.817 119.312 147.647 118.422 147.464C116.931 147.045 114.563 146.692 115.126 144.232V144.219Z" fill="#2D00F7"/>
<path d="M95.8944 144.468L95.1095 140.347L94.3377 136.226C93.4611 131.568 92.5454 126.571 91.7735 121.626C91.368 119.075 91.0409 116.576 90.74 114.208C90.5961 113.031 90.4653 111.788 90.3345 110.532C90.3345 110.283 90.3083 110.153 90.2952 110.061L90.256 109.721C90.2298 109.472 90.2036 109.224 90.1905 108.988V108.831C90.1251 108.217 90.0859 107.602 90.0336 106.974L90.0074 106.817C89.8897 105.744 89.3533 105.064 88.6076 105.024H88.5684C88.3067 105.024 88.0189 105.155 87.7704 105.404C87.3648 105.809 87.1424 106.424 87.1947 107C87.3256 108.701 87.4433 110.1 87.5741 111.435C87.7049 112.769 87.8619 114.221 88.0712 115.843C89.0655 124.02 90.6092 132.17 92.1136 140.059L92.1529 140.268C92.2706 140.857 92.3753 141.459 92.493 142.047C92.166 141.864 91.8258 141.72 91.4726 141.589C89.9028 141.04 88.0451 141.145 86.6191 142.008C85.2193 142.858 83.898 144.821 84.7614 146.456C85.2062 147.28 86.2136 147.686 87.077 147.908C87.9928 148.144 88.9478 148.183 89.8897 148.091C90.7924 148 91.695 147.83 92.5977 147.647C93.3303 147.49 96.614 146.901 95.9075 144.428V144.468H95.8944Z" fill="#2D00F7"/>
<path d="M150.63 68.1063C150.447 68.4595 150.408 68.8912 150.512 69.2706C150.564 69.4276 150.63 69.5715 150.735 69.6892H150.525L151.101 70.0032C151.977 70.4611 152.854 70.9844 153.691 71.5469C154.123 71.8478 154.528 72.1356 154.895 72.4103L155.169 72.6066C155.274 72.672 155.366 72.7505 155.47 72.829L155.523 72.8682L155.693 72.999C155.732 73.0383 155.784 73.0775 155.784 73.0775L155.902 73.1822C157.407 74.4381 158.819 75.851 160.101 77.3947C160.442 77.8133 160.756 78.2189 161.017 78.559C161.07 78.6506 161.096 78.7029 161.135 78.7422C161.174 78.8207 161.266 78.9253 161.266 78.9253L161.305 78.9907C161.462 79.2 161.606 79.4094 161.75 79.6187C162.299 80.4429 162.823 81.2932 163.333 82.1828C163.83 83.0986 164.275 84.0012 164.667 84.8908C164.72 84.9955 164.772 85.1002 164.811 85.2048C164.85 85.3095 164.903 85.4403 164.955 85.545L165.06 85.8197C165.06 85.8197 165.086 85.9113 165.112 85.9505C165.125 85.9898 165.151 86.0159 165.151 86.0552C165.334 86.5261 165.491 86.9971 165.661 87.4681C166.002 88.4754 166.303 89.5743 166.551 90.7125C166.682 91.2227 166.773 91.7198 166.878 92.3216L167.009 93.185C167.009 93.185 167.048 93.3289 167.048 93.3943C167.048 93.4598 167.074 93.5252 167.074 93.5906V93.6429L167.101 93.8261C167.101 93.9046 167.114 93.9961 167.14 94.0746C166.473 94.3755 165.818 94.7157 165.23 95.1474C164.379 95.7492 163.647 96.5341 163.359 97.5676C163.202 98.104 163.163 98.6403 163.424 99.1375C163.673 99.6084 164.092 99.8962 164.563 100.079C164.772 100.171 164.994 100.223 165.23 100.223C165.439 101.767 166.172 103.337 167.611 104.07C169.311 104.946 171.431 104.554 172.7 103.088C174.06 101.532 174.23 99.2421 173.393 97.3975C172.739 95.9454 171.352 94.7549 169.809 94.2316C169.848 94.0877 169.848 93.9569 169.848 93.813C169.377 89.522 168.134 85.4011 166.145 81.5941C164.196 77.8395 161.527 74.4381 158.427 71.7431C156.517 70.0948 154.528 68.708 152.501 67.6353C152.187 67.4783 151.807 67.4129 151.467 67.4783C151.088 67.5568 150.8 67.7792 150.617 68.1063H150.63V68.1063Z" fill="#2D00F7"/>
<path d="M100.918 0C67.9504 0 41.2363 26.7271 41.2363 59.6815C41.2363 92.6358 67.9635 119.363 100.918 119.363C133.872 119.363 160.599 92.6358 160.599 59.6815C160.599 26.7271 133.885 0 100.918 0Z" fill="#DBFF00"/>
<path d="M100.918 0C67.9504 0 41.2363 26.7271 41.2363 59.6815C41.2363 92.6358 67.9635 119.363 100.918 119.363C133.872 119.363 160.599 92.6358 160.599 59.6815C160.599 26.7271 133.885 0 100.918 0Z" fill="url(#paint0_radial_2817_55036)"/>
<path d="M54.7371 52.3686C53.6512 47.5674 53.6774 45.5527 53.7166 41.5626C53.9129 39.4564 55.2473 37.2454 56.32 36.5521C57.5498 35.8718 57.5236 37.1539 57.4974 38.9331C63.6984 26.5703 74.5306 17.9621 87.2073 15.3064C90.3863 14.7046 93.6831 14.5346 96.9929 14.8093C107.406 15.6989 118.042 20.9056 124.767 28.4541C126.441 30.338 128.351 32.4835 127.278 34.0403C125.787 36.1858 122.804 34.9691 121.47 33.2161C113.647 22.8418 100.512 17.3211 88.0315 19.1657C84.1722 19.7282 78.259 21.4289 71.9534 26.3086C67.9109 29.4353 65.2552 33.7786 62.1678 37.7426C62.1286 37.7818 61.6576 38.449 60.8465 39.9142L61.082 39.718L61.6576 39.2601C61.8407 39.1162 62.3379 38.7368 62.9658 38.6845C64.7843 38.5144 65.2814 41.2094 63.8685 43.5642C63.7377 43.7866 63.3583 44.3622 62.7696 44.8332C58.7402 48.0776 57.0526 49.9091 54.724 52.4209V52.3686H54.7371ZM100.093 54.2786C94.5988 50.1446 95.9594 41.0916 104.018 39.7965C108.649 39.2863 112.888 42.5438 113.45 47.0441C114.34 54.1739 105.98 58.6873 100.093 54.2786ZM70.9068 61.3038C65.5038 58.3472 65.8832 48.2346 73.0131 45.762C76.6499 44.7285 80.156 46.9918 81.1633 51.0473C82.8902 57.9155 76.4668 64.352 70.9068 61.3169V61.3038ZM132.564 71.7566C132.106 72.3976 128.521 75.5897 127.619 69.6765C124.74 74.1245 109.251 95.9981 85.8075 91.223C68.7351 87.7431 55.2996 74.0852 60.3755 70.6576C60.7026 70.4876 61.8931 70.1082 63.1882 71.8481C72.4636 84.2763 86.6579 86.7096 93.5915 86.1994C111.109 84.8912 121.561 67.6618 122.006 66.9292C122.046 66.8507 122.098 66.7722 122.137 66.7068C122.242 66.5367 122.386 66.3143 122.503 66.0919L121.195 66.5629C120.319 66.8638 119.494 66.8114 118.723 66.4451C116.643 65.4116 116.028 62.3242 118.199 60.4273C118.461 60.1918 118.906 59.8255 130.915 55.8485C132.472 61.5262 132.773 63.9857 133.362 68.8785C133.388 69.284 133.427 70.5268 132.564 71.7566V71.7566Z" fill="#2D00F7"/>
<defs>
<radialGradient id="paint0_radial_2817_55036" cx="0" cy="0" r="1" gradientUnits="userSpaceOnUse" gradientTransform="translate(100.918 59.6815) rotate(90) scale(59.6815)">
<stop offset="0.666667" stop-color="#DBFF00" stop-opacity="0"/>
<stop offset="1" stop-color="#D0F200"/>
</radialGradient>
</defs>
</svg>
