<svg width="64" height="64" viewBox="0 0 64 64" fill="none" xmlns="http://www.w3.org/2000/svg">
<path d="M54.1594 19.6809C56.1057 19.6809 58.0082 19.1038 59.6265 18.0225C61.2447 16.9412 62.506 15.4044 63.2508 13.6062C63.9956 11.8081 64.1905 9.82954 63.8108 7.92068C63.4311 6.01181 62.4939 4.25841 61.1177 2.8822C59.7415 1.50598 57.9881 0.568768 56.0792 0.189071C54.1703 -0.190626 52.1917 0.00424846 50.3936 0.74905C48.5955 1.49385 47.0586 2.75513 45.9774 4.37339C44.8961 5.99164 44.3189 7.8942 44.3189 9.84046C44.3189 11.1327 44.5733 12.4124 45.0678 13.6063C45.5623 14.8003 46.2872 15.8851 47.201 16.7989C48.1148 17.7127 49.1996 18.4375 50.3935 18.932C51.5875 19.4265 52.8671 19.681 54.1594 19.6809M23.9861 63.9999C19.242 63.9999 14.6046 62.5931 10.6601 59.9575C6.71555 57.3219 3.64118 53.5757 1.82572 49.1928C0.0102681 44.8099 -0.464736 39.9871 0.46078 35.3343C1.3863 30.6814 3.67076 26.4075 7.02529 23.0529C10.3798 19.6984 14.6538 17.414 19.3066 16.4885C23.9595 15.563 28.7823 16.038 33.1652 17.8534C37.5481 19.6689 41.2942 22.7433 43.9298 26.6878C46.5655 30.6323 47.9722 35.2698 47.9722 40.0138C47.9723 43.1637 47.3519 46.2828 46.1465 49.193C44.9411 52.1032 43.1743 54.7474 40.947 56.9747C38.7197 59.2021 36.0754 60.9689 33.1653 62.1743C30.2551 63.3796 27.136 64 23.9861 63.9999" fill="white"/>
</svg>
