<svg width="24" height="24" viewBox="0 0 24 24" fill="none" xmlns="http://www.w3.org/2000/svg">
<path d="M12 0C5.37333 0 0 5.37333 0 12C0 18.6267 5.37333 24 12 24C18.6267 24 24 18.6267 24 12C24 5.37333 18.6267 0 12 0Z" fill="#DBFF00"/>
<path d="M7.39489 10.8639C7.30489 10.8539 7.24489 10.7805 7.26156 10.6905C7.29156 10.5139 7.32156 10.3372 7.35156 10.1605C7.40156 9.87053 7.45156 9.58053 7.50156 9.29053C7.50489 9.26386 7.49489 9.24719 7.47822 9.22719C7.14489 8.90386 6.81489 8.58053 6.48156 8.25719C6.44489 8.22053 6.41489 8.18053 6.41822 8.12719C6.42489 8.06053 6.47156 8.01386 6.54156 8.00053C6.81156 7.96053 7.07822 7.92053 7.34822 7.88386C7.54489 7.85386 7.74156 7.82719 7.93822 7.80053C7.97156 7.79719 7.98822 7.78053 8.00156 7.75386C8.20489 7.33719 8.41156 6.92386 8.61489 6.50719C8.63822 6.45719 8.66822 6.42053 8.72489 6.40719C8.78822 6.39386 8.84489 6.42719 8.87822 6.49386C8.95156 6.64053 9.02489 6.78719 9.09489 6.93386C9.22822 7.20719 9.36489 7.48053 9.49822 7.75386C9.51156 7.78053 9.52822 7.79053 9.55489 7.79719C9.89822 7.84719 10.2382 7.89719 10.5816 7.94719C10.7049 7.96386 10.8282 7.98386 10.9516 8.00053C11.0116 8.01053 11.0549 8.03719 11.0716 8.09719C11.0916 8.15386 11.0716 8.20053 11.0316 8.24053C10.9549 8.31719 10.8749 8.39386 10.7982 8.47053C10.5416 8.72053 10.2849 8.97053 10.0282 9.22053C10.0016 9.24386 9.99489 9.26719 10.0016 9.30386C10.0816 9.76719 10.1616 10.2272 10.2416 10.6905C10.2516 10.7472 10.2349 10.7972 10.1849 10.8305C10.1349 10.8672 10.0816 10.8605 10.0249 10.8305C9.77822 10.7005 9.52822 10.5705 9.27822 10.4372C9.11156 10.3505 8.94822 10.2639 8.78156 10.1772C8.75489 10.1639 8.73489 10.1639 8.70822 10.1772C8.30156 10.3939 7.89156 10.6072 7.48489 10.8205C7.45489 10.8372 7.42156 10.8472 7.38822 10.8605L7.39489 10.8639Z" fill="#2D00F7"/>
<path d="M13.8949 10.8639C13.8049 10.8539 13.7449 10.7805 13.7616 10.6905C13.7916 10.5139 13.8216 10.3372 13.8516 10.1605C13.9016 9.87053 13.9516 9.58053 14.0016 9.29053C14.0049 9.26386 13.9949 9.24719 13.9782 9.22719C13.6449 8.90386 13.3149 8.58053 12.9816 8.25719C12.9449 8.22053 12.9149 8.18053 12.9182 8.12719C12.9249 8.06053 12.9716 8.01386 13.0416 8.00053C13.3116 7.96053 13.5782 7.92053 13.8482 7.88386C14.0449 7.85386 14.2416 7.82719 14.4382 7.80053C14.4716 7.79719 14.4882 7.78053 14.5016 7.75386C14.7049 7.33719 14.9116 6.92386 15.1149 6.50719C15.1382 6.45719 15.1682 6.42053 15.2249 6.40719C15.2882 6.39386 15.3449 6.42719 15.3782 6.49386C15.4516 6.64053 15.5249 6.78719 15.5949 6.93386C15.7282 7.20719 15.8649 7.48053 15.9982 7.75386C16.0116 7.78053 16.0282 7.79053 16.0549 7.79719C16.3982 7.84719 16.7382 7.89719 17.0816 7.94719C17.2049 7.96386 17.3282 7.98386 17.4516 8.00053C17.5116 8.01053 17.5549 8.03719 17.5716 8.09719C17.5916 8.15386 17.5716 8.20053 17.5316 8.24053C17.4549 8.31719 17.3749 8.39386 17.2982 8.47053C17.0416 8.72053 16.7849 8.97053 16.5282 9.22053C16.5016 9.24386 16.4949 9.26719 16.5016 9.30386C16.5816 9.76719 16.6616 10.2272 16.7416 10.6905C16.7516 10.7472 16.7349 10.7972 16.6849 10.8305C16.6349 10.8672 16.5816 10.8605 16.5249 10.8305C16.2782 10.7005 16.0282 10.5705 15.7782 10.4372C15.6116 10.3505 15.4482 10.2639 15.2816 10.1772C15.2549 10.1639 15.2349 10.1639 15.2082 10.1772C14.8016 10.3939 14.3916 10.6072 13.9849 10.8205C13.9549 10.8372 13.9216 10.8472 13.8882 10.8605L13.8949 10.8639Z" fill="#2D00F7"/>
<path d="M4.63903 15.0274C4.75903 15.3908 5.04903 15.8408 5.4857 16.3141C6.3557 17.2574 7.77237 18.2608 9.41903 18.7808C11.6724 19.4908 13.6757 18.8541 15.2024 17.9308C16.7324 17.0074 17.7757 15.8008 18.1057 15.3908L18.2457 15.2174L18.2557 15.4408C18.269 15.7341 18.3257 15.9008 18.3957 15.9974C18.459 16.0874 18.539 16.1141 18.6224 16.1108C18.709 16.1108 18.8057 16.0708 18.889 16.0241C18.9724 15.9774 19.0324 15.9241 19.049 15.9041C19.2257 15.7008 19.2424 15.4774 19.2457 15.4008V15.3508H19.249C19.2357 14.4274 19.2257 13.9341 19.0524 12.8574C17.8724 13.1141 17.2524 13.2608 16.9224 13.3474C16.5957 13.4341 16.559 13.4574 16.5457 13.4708C16.119 13.7708 16.179 14.3274 16.519 14.5408C16.6424 14.6208 16.7857 14.6408 16.9457 14.6074L17.4557 14.4841L17.3024 14.6774C17.2724 14.7141 17.239 14.7574 17.2157 14.7908C17.2157 14.7908 17.2057 14.8074 17.2024 14.8108C17.199 14.8174 17.1924 14.8208 17.1857 14.8341C17.1257 14.9108 16.4857 15.7541 15.419 16.5641C14.3457 17.3774 12.839 18.1674 11.0524 18.1108C9.64237 18.0674 6.82903 17.2741 5.2257 14.5741C5.12237 14.4008 5.01903 14.3374 4.94903 14.3141C4.87903 14.2941 4.8257 14.3041 4.79903 14.3141C4.68903 14.3741 4.6257 14.4641 4.59903 14.5774C4.57237 14.6974 4.5857 14.8474 4.6457 15.0308L4.63903 15.0274Z" fill="#2D00F7"/>
</svg>
