<svg width="88" height="88" viewBox="0 0 88 88" fill="none" xmlns="http://www.w3.org/2000/svg">
<path d="M44 0C19.7003 0 0 19.7003 0 44C0 68.2997 19.7003 88 44 88C68.2997 88 88 68.2997 88 44C88 19.7003 68.2997 0 44 0Z" fill="#DBFF00"/>
<path d="M9.95954 38.6106C9.16461 35.0642 9.18221 33.5858 9.21448 30.6378C9.35821 29.0861 10.3438 27.4493 11.1387 26.9506C12.0393 26.4461 12.0275 27.3906 12.007 28.6989C16.5771 19.5909 24.5617 13.2402 33.9102 11.2749C36.2539 10.8261 38.6827 10.6999 41.1262 10.9082C48.8057 11.5565 56.6494 15.4079 61.6009 20.9607C62.8387 22.3511 64.2438 23.9263 63.4489 25.0762C62.3518 26.6602 60.1489 25.7597 59.1721 24.4661C53.3993 16.8189 43.7222 12.7533 34.5174 14.1055C31.675 14.525 27.3102 15.7746 22.6638 19.365C19.6806 21.6706 17.727 24.8709 15.4507 27.7925C15.4273 27.8277 15.0723 28.3175 14.4769 29.3882C14.5355 29.3383 14.5942 29.2885 14.6499 29.2415L15.0694 28.9071C15.2073 28.8015 15.5769 28.5229 16.0286 28.4818C17.3691 28.3586 17.7387 30.3415 16.7003 32.0722C16.6006 32.2365 16.3249 32.6589 15.8937 33.0079C12.9251 35.4045 11.6814 36.7479 9.95954 38.6077V38.6106ZM43.3937 40.0215C39.3457 36.9738 40.3459 30.3005 46.2859 29.3501C49.7033 28.9746 52.8243 31.3711 53.2409 34.6975C53.9009 39.9541 47.735 43.2893 43.3937 40.0245V40.0215ZM21.8747 45.2018C17.8854 43.0194 18.1699 35.5746 23.4235 33.7442C26.1017 32.9757 28.6859 34.6477 29.4369 37.6367C30.707 42.7055 25.9726 47.4429 21.8747 45.2018ZM67.3326 52.9311C66.9982 53.4063 64.3465 55.7589 63.6835 51.4029H63.6806C61.5598 54.6853 50.1403 70.8157 32.8542 67.2957C20.2702 64.7319 10.3614 54.6589 14.1043 52.1303C14.3478 52.0101 15.219 51.7226 16.1782 53.0103C23.0129 62.1682 33.4849 63.9693 38.5977 63.5909C51.5131 62.6346 59.2219 49.9245 59.5446 49.3818C59.5798 49.3202 59.6121 49.2674 59.6443 49.2175C59.7177 49.0914 59.8203 48.9213 59.9171 48.7629H59.9113L58.9491 49.1119C58.3067 49.3319 57.6907 49.2997 57.1217 49.0181C55.5905 48.2642 55.1329 45.9762 56.7403 44.5799C56.9339 44.4098 57.2595 44.1282 66.1153 41.2066C67.2681 45.3954 67.4822 47.2053 67.9134 50.8103C67.9251 51.1125 67.9662 52.0277 67.3297 52.9311H67.3326Z" fill="#2D00F7"/>
</svg>
