<svg width="88" height="88" viewBox="0 0 88 88" fill="none" xmlns="http://www.w3.org/2000/svg">
<path d="M45.2278 38.3378C41.181 35.2925 42.1825 28.6173 48.1225 27.6678C51.5383 27.2915 54.6589 29.6883 55.0757 33.0115C55.7357 38.2683 49.5699 41.6031 45.2278 38.3378Z" fill="#D1D5DB"/>
<path d="M67.0136 57.5299C66.4462 56.3662 65.2594 54.9825 63.5746 53.5931C60.2167 50.8199 54.9888 48.0988 49.2052 47.1088C41.2967 45.7599 34.8589 48.8283 30.1462 52.6378C25.4336 56.4531 22.4752 60.9862 21.5546 62.5146L21.161 63.1688L21.022 62.4162C20.8425 61.4436 20.5704 60.8994 20.2925 60.6157C20.032 60.3494 19.7541 60.2915 19.482 60.3378C19.1868 60.3841 18.8857 60.552 18.6252 60.7488C18.3646 60.9457 18.191 61.1483 18.1389 61.2236C17.6424 61.9768 17.6915 62.7244 17.7097 63.0007L17.7104 63.0125L17.722 63.1804C18.191 66.2836 18.4515 67.9336 19.5341 71.4709C23.3841 70.0641 25.3989 69.2883 26.4699 68.8425C27.5095 68.4131 27.6338 68.3035 27.6822 68.2608L27.6857 68.2578H27.6915C28.9825 67.0536 28.531 65.2125 27.292 64.6452C26.8404 64.4367 26.3541 64.4252 25.8273 64.622L24.1715 65.2704L24.5941 64.5467C24.6319 64.4792 24.6723 64.4091 24.711 64.3419C24.7553 64.265 24.7975 64.1916 24.8315 64.1299V64.1183C24.8315 64.1183 24.8604 64.072 24.872 64.0546C24.8792 64.0439 24.8863 64.031 24.8962 64.0131C24.9023 64.002 24.9095 63.989 24.9183 63.9736C25.0804 63.6841 26.8462 60.5578 30.0594 57.3388C33.2899 54.1083 37.9968 50.7562 44.0294 50.1194C48.7941 49.6157 58.6131 50.982 65.2594 59.3188C65.6878 59.8573 66.0583 60.0252 66.3131 60.0657C66.5562 60.1062 66.7357 60.0425 66.8167 60.002C67.1583 59.7473 67.332 59.4231 67.3667 59.0294C67.4015 58.6183 67.2857 58.1146 67.002 57.5299H67.0136Z" fill="#D1D5DB"/>
<path d="M25.2599 32.062C20.0031 33.8915 19.7194 41.3367 23.7083 43.5194H23.7141C27.8131 45.7599 32.5489 41.0241 31.2752 35.9525C30.5225 32.9652 27.9404 31.292 25.2599 32.062Z" fill="#D1D5DB"/>
<path fill-rule="evenodd" clip-rule="evenodd" d="M44 85.69C67.0248 85.69 85.69 67.0248 85.69 44C85.69 20.9752 67.0248 2.31 44 2.31C20.9752 2.31 2.31 20.9752 2.31 44C2.31 67.0248 20.9752 85.69 44 85.69ZM44 88C68.3005 88 88 68.3005 88 44C88 19.6995 68.3005 0 44 0C19.6995 0 0 19.6995 0 44C0 68.3005 19.6995 88 44 88Z" fill="#D1D5DB"/>
</svg>
